<?xml version="1.0" encoding="UTF-8"?>
<svg width="160" height="160" version="1.1" xmlns="http://www.w3.org/2000/svg" xmlns:cc="http://creativecommons.org/ns#" xmlns:dc="http://purl.org/dc/elements/1.1/" xmlns:rdf="http://www.w3.org/1999/02/22-rdf-syntax-ns#" xmlns:xhtml="http://www.w3.org/1999/xhtml" xmlns:xlink="http://www.w3.org/1999/xlink">
 <title>JS in JSON</title>
 <defs>
  <linearGradient id="linearGradient8385">
   <stop offset="0"/>
   <stop stop-color="#fff" offset="1"/>
  </linearGradient>
  <linearGradient id="linearGradient3002" x1="-553.27" x2="-666.12" y1="525.91" y2="413.05" gradientTransform="matrix(.99884 0 0 .9987 689.01 -388.84)" gradientUnits="userSpaceOnUse" xlink:href="#linearGradient8385"/>
  <linearGradient id="linearGradient3005" x1="-666.12" x2="-553.27" y1="413.04" y2="525.91" gradientTransform="matrix(.99884 0 0 .9987 689.01 -388.84)" gradientUnits="userSpaceOnUse" xlink:href="#linearGradient8385"/>
 </defs>
 <metadata id="metadata-json-logo">
  <rdf:RDF>
   <cc:Work rdf:about="">
    <dc:format>image/svg+xml</dc:format>
    <dc:type rdf:resource="http://purl.org/dc/dcmitype/StillImage"/>
    <dc:title>JSON logo</dc:title>
    <dc:date>2011-09-05 22:42:49</dc:date>
    <dc:creator>
     <cc:Agent>
      <dc:title>fzap</dc:title>
     </cc:Agent>
    </dc:creator>
    <cc:license rdf:resource="http://creativecommons.org/publicdomain/zero/1.0/"/>
    <dc:rights>
     <cc:Agent>
      <dc:title>PD</dc:title>
     </cc:Agent>
    </dc:rights>
    <dc:publisher>
     <cc:Agent>
      <dc:title>openclipart.org</dc:title>
     </cc:Agent>
    </dc:publisher>
    <dc:description>JSON-Logo adapted from the JSON-Website: http://json.org</dc:description>
    <dc:language>en_GB</dc:language>
    <dc:subject>
     <rdf:Bag>
      <rdf:li>json</rdf:li>
      <rdf:li>logo</rdf:li>
     </rdf:Bag>
    </dc:subject>
   </cc:Work>
   <cc:License rdf:about="http://creativecommons.org/licenses/publicdomain/">
    <cc:permits rdf:resource="http://creativecommons.org/ns#Reproduction"/>
    <cc:permits rdf:resource="http://creativecommons.org/ns#Distribution"/>
    <cc:permits rdf:resource="http://creativecommons.org/ns#DerivativeWorks"/>
   </cc:License>
  </rdf:RDF>
 </metadata>
 <g>
  <path d="m79.865 119.1c35.398 48.255 70.04-13.469 69.989-50.587-0.0602-43.886-44.541-68.414-70.018-68.414-40.892 0-79.836 33.796-79.836 80.036 0 51.396 44.64 79.865 79.836 79.865-7.9645-1.1468-34.506-6.834-34.863-67.967-0.23987-41.347 13.488-57.866 34.805-50.599 0.47743 0.17707 23.514 9.2645 23.514 38.951 0 29.56-23.427 38.715-23.427 38.715z" color="#000000" fill="url(#linearGradient3005)" fill-rule="evenodd"/>
  <path d="m79.823 41.401c-23.39-8.0619-52.043 11.216-52.043 49.829 0 63.048 46.721 68.77 52.384 68.77 40.892 0 79.836-33.796 79.836-80.036 0-51.396-44.64-79.865-79.836-79.865 9.7481-1.35 52.541 10.55 52.541 69.037 0 38.141-31.953 58.905-52.735 50.033-0.47743-0.17707-23.514-9.2645-23.514-38.951 0-29.56 23.367-38.818 23.367-38.818z" color="#000000" fill="url(#linearGradient3002)" fill-rule="evenodd"/>
  <path d="m74.872 115.99c-10.292-6.8839-16.537-17.6-17.86-30.651-1.2295-12.124 1.8714-23.875 8.4955-32.193 4.4597-5.6005 12.815-11.915 14.808-11.191 0.47103 0.17108 2.1726 1.1419 3.7812 2.1575 12.201 7.7025 18.735 20.21 18.805 35.995 0.0586 13.292-4.0525 23.435-12.87 31.753-3.6227 3.4175-8.7683 6.8014-10.342 6.8014-0.45174 0-2.6194-1.2026-4.817-2.6725z" fill="#f7df1e"/>
 </g>
</svg>
